<svg width="41" height="40" viewBox="0 0 41 40" fill="none" xmlns="http://www.w3.org/2000/svg">
<g opacity="0.25" filter="url(#filter0_f_8294_105291)">
<rect x="6.09473" y="16" width="29.0655" height="18.1659" rx="9.08297" fill="url(#paint0_linear_8294_105291)"/>
</g>
<rect x="5.21387" y="0.213867" width="31.4876" height="31.4876" rx="6" fill="url(#paint1_linear_8294_105291)"/>
<g clip-path="url(#clip0_8294_105291)">
<path d="M27.0703 24.8832C28.3608 24.3846 29.381 23.3643 29.8796 22.0738C30.1157 21.4625 30.2809 20.765 30.3257 19.7448C30.3364 19.5058 30.3446 19.3052 30.3523 19.104V12.2874C30.347 12.1451 30.3411 11.997 30.3334 11.8306C30.2886 10.8104 30.1233 10.1094 29.8873 9.50159C29.6436 8.85663 29.2683 8.27895 28.7774 7.79921C28.2971 7.31122 27.7158 6.93238 27.078 6.69281C26.4666 6.45678 25.7692 6.29156 24.7489 6.24671C23.721 6.19774 23.3947 6.18652 20.7883 6.18652C18.1819 6.18652 17.855 6.19774 16.8312 6.24258C15.811 6.28743 15.11 6.45265 14.5022 6.68868C13.8572 6.93238 13.2795 7.30768 12.7992 7.79921C12.3118 8.27954 11.933 8.86076 11.6928 9.49805C11.4568 10.1094 11.2916 10.8068 11.2467 11.8271C11.1977 12.855 11.1865 13.1813 11.1865 15.7883C11.1865 18.3953 11.1977 18.7216 11.2426 19.7454C11.2874 20.7656 11.4526 21.4672 11.6893 22.0744C11.933 22.7194 12.3118 23.2971 12.7992 23.7774C13.2795 24.2648 13.8608 24.6442 14.4986 24.8838C15.11 25.1198 15.8074 25.285 16.8277 25.3299C17.8515 25.3753 18.1778 25.3865 20.7848 25.3865C23.3917 25.3865 23.7174 25.3753 24.7418 25.3299C25.7621 25.285 26.4631 25.1198 27.0709 24.8838L27.0703 24.8832ZM20.7918 23.6605C18.2297 23.6605 17.9223 23.6493 16.9132 23.6045C15.9756 23.5632 15.4693 23.4056 15.1318 23.2746C14.7158 23.1206 14.337 22.8769 14.0289 22.5583C13.7103 22.2467 13.466 21.872 13.3126 21.4554C13.1816 21.1179 13.024 20.6075 12.9827 19.674C12.9379 18.6614 12.9267 18.3575 12.9267 15.7954C12.9267 13.2333 12.9379 12.9258 12.9827 11.9174C13.024 10.9797 13.1816 10.4735 13.3126 10.1359C13.4666 9.71933 13.7103 9.3405 14.0331 9.03307C14.344 8.71442 14.7193 8.47072 15.1353 8.31671C15.4729 8.18571 15.9833 8.02816 16.9168 7.98686C17.9294 7.94201 18.2333 7.9308 20.7948 7.9308C23.3563 7.9308 23.6643 7.94201 24.6734 7.98686C25.611 8.02816 26.1173 8.18571 26.4548 8.31671C26.8708 8.47072 27.2497 8.71442 27.5571 9.03307C27.8757 9.34463 28.12 9.71933 28.2735 10.1359C28.4044 10.4735 28.562 10.9833 28.6033 11.9174C28.6481 12.93 28.6594 13.2338 28.6594 15.7954C28.6594 18.3569 28.6481 18.6573 28.6033 19.6698C28.562 20.6075 28.4044 21.1138 28.2735 21.4513C27.9507 22.288 27.2868 22.9519 26.4507 23.274C26.1132 23.405 25.6033 23.5626 24.6692 23.6039C23.6567 23.6487 23.3528 23.66 20.7912 23.66L20.7918 23.6605Z" fill="white"/>
<path d="M20.7879 10.8555C18.0647 10.8555 15.8555 13.0647 15.8555 15.7879C15.8555 18.5112 18.0647 20.7204 20.7879 20.7204C23.5112 20.7204 25.7198 18.5112 25.7198 15.7879C25.7198 13.0647 23.5106 10.8555 20.7879 10.8555ZM20.7879 18.9868C19.0212 18.9868 17.5885 17.554 17.5885 15.7874C17.5885 14.0207 19.0212 12.5879 20.7879 12.5879C22.5546 12.5879 23.9874 14.0207 23.9874 15.7874C23.9874 17.554 22.5546 18.9868 20.7879 18.9868Z" fill="white"/>
<path d="M27.0668 10.661C27.0668 10.0249 26.551 9.50977 25.9149 9.50977C25.2788 9.50977 24.7637 10.0255 24.7637 10.661C24.7637 11.2965 25.2794 11.8123 25.9149 11.8123C26.5504 11.8123 27.0668 11.2971 27.0668 10.661Z" fill="white"/>
</g>
<defs>
<filter id="filter0_f_8294_105291" x="0.634727" y="10.54" width="39.9854" height="29.086" filterUnits="userSpaceOnUse" color-interpolation-filters="sRGB">
<feFlood flood-opacity="0" result="BackgroundImageFix"/>
<feBlend mode="normal" in="SourceGraphic" in2="BackgroundImageFix" result="shape"/>
<feGaussianBlur stdDeviation="2.73" result="effect1_foregroundBlur_8294_105291"/>
</filter>
<linearGradient id="paint0_linear_8294_105291" x1="20.6275" y1="15.434" x2="20.6275" y2="35.118" gradientUnits="userSpaceOnUse">
<stop stop-color="#FCA759"/>
<stop offset="0.19" stop-color="#E82D56"/>
<stop offset="0.74" stop-color="#A22DB4"/>
<stop offset="1" stop-color="#643DCE"/>
</linearGradient>
<linearGradient id="paint1_linear_8294_105291" x1="20.9577" y1="-0.767252" x2="20.9577" y2="33.3517" gradientUnits="userSpaceOnUse">
<stop stop-color="#FCA759"/>
<stop offset="0.19" stop-color="#E82D56"/>
<stop offset="0.74" stop-color="#A22DB4"/>
<stop offset="1" stop-color="#643DCE"/>
</linearGradient>
<clipPath id="clip0_8294_105291">
<rect width="19.2" height="19.2" fill="white" transform="translate(11.1865 6.18652)"/>
</clipPath>
</defs>
</svg>
