<svg width="41" height="40" viewBox="0 0 41 40" fill="none" xmlns="http://www.w3.org/2000/svg">
<g opacity="0.25" filter="url(#filter0_f_8294_96434)">
<rect x="6.09473" y="16" width="29.0655" height="18.1659" rx="9.08297" fill="url(#paint0_linear_8294_96434)"/>
</g>
<rect x="5.21387" y="0.213867" width="31.4876" height="31.4876" rx="6" fill="url(#paint1_linear_8294_96434)"/>
<g clip-path="url(#clip0_8294_96434)" filter="url(#filter1_i_8294_96434)">
<path d="M30.3011 9.79652C29.6801 10.064 29.0271 10.2503 28.3585 10.3508C28.6711 10.2971 29.1311 9.73394 29.3142 9.50597C29.5923 9.16211 29.8043 8.76957 29.9394 8.34828C29.9394 8.31699 29.9707 8.27229 29.9394 8.24994C29.9236 8.24133 29.906 8.23682 29.888 8.23682C29.8701 8.23682 29.8524 8.24133 29.8367 8.24994C29.1106 8.64348 28.3379 8.94384 27.5367 9.14391C27.5088 9.15245 27.4791 9.15322 27.4508 9.14613C27.4224 9.13904 27.3966 9.12437 27.376 9.10369C27.3136 9.02936 27.2465 8.95919 27.175 8.8936C26.8482 8.60058 26.4775 8.36075 26.0764 8.18289C25.5349 7.96055 24.95 7.86426 24.3659 7.90129C23.7992 7.93711 23.2458 8.08926 22.7403 8.34828C22.2426 8.62135 21.8051 8.99233 21.4542 9.43893C21.0851 9.89859 20.8186 10.432 20.6726 11.0034C20.5523 11.5469 20.5386 12.1086 20.6324 12.6572C20.6324 12.7511 20.6324 12.7645 20.5521 12.7511C17.3679 12.2818 14.7553 11.1509 12.6206 8.72375C12.5268 8.61647 12.4777 8.61647 12.4018 8.72375C11.4729 10.1362 11.9239 12.3712 13.0851 13.4752C13.2414 13.6227 13.4021 13.7658 13.5718 13.8999C13.0395 13.862 12.5201 13.7176 12.0445 13.4752C11.9552 13.4171 11.9061 13.4484 11.9016 13.5557C11.8889 13.7044 11.8889 13.8539 11.9016 14.0027C11.9948 14.7154 12.2754 15.3906 12.7148 15.9592C13.1542 16.5278 13.7367 16.9694 14.4025 17.2389C14.5648 17.3084 14.734 17.3609 14.9071 17.3953C14.4143 17.4924 13.9088 17.5075 13.4111 17.44C13.3039 17.4177 13.2637 17.4758 13.3039 17.5786C13.9604 19.3665 15.385 19.9118 16.43 20.2158C16.5729 20.2381 16.7158 20.2381 16.8766 20.2739C16.8766 20.2739 16.8766 20.2739 16.8498 20.3007C16.5417 20.8639 15.2957 21.2439 14.724 21.4405C13.6807 21.8157 12.5682 21.959 11.4639 21.8607C11.2898 21.8339 11.2496 21.8384 11.2049 21.8607C11.1603 21.8831 11.2049 21.9322 11.254 21.9769C11.4773 22.1244 11.7006 22.2541 11.9329 22.3792C12.6242 22.7566 13.3551 23.0564 14.1122 23.2732C18.0333 24.3549 22.4456 23.5593 25.3886 20.6315C27.702 18.334 28.5148 15.1648 28.5148 11.9912C28.5148 11.8705 28.6621 11.799 28.747 11.7364C29.3323 11.28 29.8482 10.741 30.2788 10.1362C30.3534 10.0461 30.3916 9.9313 30.386 9.8144C30.386 9.74735 30.386 9.76076 30.3011 9.79652Z" fill="white"/>
</g>
<defs>
<filter id="filter0_f_8294_96434" x="0.634727" y="10.54" width="39.9854" height="29.086" filterUnits="userSpaceOnUse" color-interpolation-filters="sRGB">
<feFlood flood-opacity="0" result="BackgroundImageFix"/>
<feBlend mode="normal" in="SourceGraphic" in2="BackgroundImageFix" result="shape"/>
<feGaussianBlur stdDeviation="2.73" result="effect1_foregroundBlur_8294_96434"/>
</filter>
<filter id="filter1_i_8294_96434" x="11.1865" y="6.18652" width="19.2002" height="19.7002" filterUnits="userSpaceOnUse" color-interpolation-filters="sRGB">
<feFlood flood-opacity="0" result="BackgroundImageFix"/>
<feBlend mode="normal" in="SourceGraphic" in2="BackgroundImageFix" result="shape"/>
<feColorMatrix in="SourceAlpha" type="matrix" values="0 0 0 0 0 0 0 0 0 0 0 0 0 0 0 0 0 0 127 0" result="hardAlpha"/>
<feOffset dy="0.5"/>
<feGaussianBlur stdDeviation="1.25"/>
<feComposite in2="hardAlpha" operator="arithmetic" k2="-1" k3="1"/>
<feColorMatrix type="matrix" values="0 0 0 0 0 0 0 0 0 0 0 0 0 0 0 0 0 0 0.1 0"/>
<feBlend mode="normal" in2="shape" result="effect1_innerShadow_8294_96434"/>
</filter>
<linearGradient id="paint0_linear_8294_96434" x1="6.6855" y1="16" x2="19.4951" y2="41.6595" gradientUnits="userSpaceOnUse">
<stop stop-color="#00A2F4"/>
<stop offset="1" stop-color="#05ABFF"/>
</linearGradient>
<linearGradient id="paint1_linear_8294_96434" x1="5.85387" y1="0.213867" x2="32.9472" y2="34.1339" gradientUnits="userSpaceOnUse">
<stop stop-color="#0CA8F7"/>
<stop offset="1" stop-color="#0096E1"/>
</linearGradient>
<clipPath id="clip0_8294_96434">
<rect width="19.2" height="19.2" fill="white" transform="translate(11.1865 6.18652)"/>
</clipPath>
</defs>
</svg>
