<svg width="41" height="40" viewBox="0 0 41 40" fill="none" xmlns="http://www.w3.org/2000/svg">
<g opacity="0.25" filter="url(#filter0_f_8294_96446)">
<rect x="6.09473" y="16" width="29.0655" height="18.1659" rx="9.08297" fill="url(#paint0_linear_8294_96446)"/>
</g>
<rect x="5.21387" y="0.213867" width="31.4876" height="31.4876" rx="6" fill="url(#paint1_linear_8294_96446)"/>
<g clip-path="url(#clip0_8294_96446)">
<path d="M30.0209 16.1216C30.0237 16.3092 30.0002 16.4965 29.9505 16.6777C29.9007 16.8588 29.8254 17.0324 29.7266 17.1927C29.6281 17.3529 29.5072 17.4988 29.3677 17.6258C29.2281 17.7529 29.0712 17.8597 28.9016 17.9433C28.9054 17.9933 28.9085 18.0436 28.9102 18.0939C28.9144 18.1943 28.9144 18.2949 28.9102 18.3953C28.9085 18.4456 28.9054 18.4959 28.9016 18.5459C28.9016 21.614 25.2948 24.1069 20.8451 24.1069C16.3954 24.1069 12.7886 21.614 12.7886 18.5459C12.7848 18.4959 12.7817 18.4456 12.78 18.3953C12.7758 18.2949 12.7758 18.1943 12.78 18.0939C12.7817 18.0436 12.7848 17.9933 12.7886 17.9433C12.5229 17.8222 12.2868 17.6453 12.0969 17.4249C11.9069 17.2045 11.7675 16.9458 11.6883 16.6667C11.6093 16.3875 11.5924 16.0946 11.639 15.8083C11.6855 15.522 11.7943 15.2492 11.9578 15.0087C12.1211 14.7682 12.3353 14.5659 12.5854 14.4157C12.8356 14.2655 13.1157 14.1711 13.4064 14.1389C13.697 14.1066 13.9913 14.1374 14.2689 14.229C14.5464 14.3207 14.8004 14.471 15.0135 14.6697C15.409 14.404 15.8234 14.167 16.2534 13.9605C16.6835 13.7544 17.1282 13.5791 17.5838 13.4366C18.0395 13.2942 18.5052 13.1849 18.9768 13.1093C19.4484 13.0336 19.9251 12.9921 20.4029 12.985L21.4255 8.23211C21.4369 8.17698 21.4594 8.12493 21.4915 8.07836C21.5233 8.03214 21.5644 7.99242 21.6117 7.96194C21.6594 7.93146 21.7126 7.91058 21.7686 7.9003C21.8242 7.89037 21.8815 7.8914 21.9368 7.90339L25.3225 8.57454C25.6642 7.99276 26.3814 7.74347 27.0146 7.98591C27.6479 8.22835 28.0099 8.89094 27.8683 9.54908C27.727 10.2072 27.1238 10.6661 26.446 10.6315C25.7678 10.5969 25.2154 10.0791 25.1428 9.41005L22.1856 8.79369L21.2873 13.0671C21.7593 13.0771 22.2301 13.1209 22.6958 13.1979C23.6284 13.352 24.5337 13.6387 25.3836 14.0492C25.8081 14.254 26.2172 14.4888 26.6076 14.7519C26.8884 14.4847 27.2412 14.3038 27.6233 14.231C28.0055 14.158 28.4009 14.1962 28.7617 14.341C29.1225 14.4857 29.4334 14.7308 29.6568 15.0467C29.8803 15.3626 30.0068 15.7359 30.0209 16.1216ZM16.307 18.0155C16.3767 18.1816 16.4783 18.3326 16.6068 18.4596C16.735 18.587 16.8874 18.6877 17.0549 18.7569C17.2226 18.8256 17.4023 18.861 17.5838 18.861C18.1428 18.861 18.6465 18.5271 18.8607 18.0155C19.0746 17.5036 18.9561 16.9146 18.5608 16.5229C18.1656 16.1311 17.5714 16.0137 17.0549 16.2257C16.5388 16.438 16.2019 16.9372 16.2019 17.4913C16.2019 17.671 16.2375 17.8491 16.307 18.0155ZM24.2218 21.3035C24.2926 21.235 24.333 21.1415 24.3344 21.0436C24.3358 20.9453 24.2975 20.8508 24.2284 20.7806C24.1593 20.7104 24.065 20.6703 23.9661 20.669C23.867 20.6676 23.7716 20.7056 23.6918 20.7648C23.484 20.9126 23.264 21.0426 23.0341 21.1535C22.8041 21.2644 22.5651 21.356 22.3196 21.4271C22.0743 21.498 21.8232 21.5483 21.5692 21.5774C21.315 21.6065 21.059 21.614 20.8037 21.6003C20.5487 21.6116 20.2931 21.6014 20.0398 21.5699C19.7865 21.5387 19.5364 21.486 19.2922 21.4124C19.0476 21.3391 18.8103 21.2453 18.5819 21.1323C18.3536 21.0193 18.1352 20.8871 17.9293 20.7374C17.8578 20.6792 17.7669 20.6494 17.6744 20.6539C17.5818 20.6583 17.4944 20.697 17.4287 20.7617C17.3634 20.8268 17.3244 20.9134 17.3199 21.0052C17.3154 21.097 17.3455 21.187 17.4042 21.2579C17.6471 21.4394 17.9051 21.5997 18.1756 21.7373C18.4461 21.875 18.7284 21.989 19.0186 22.0787C19.3088 22.1684 19.6063 22.2331 19.9079 22.2725C20.2094 22.3116 20.5138 22.3249 20.8175 22.3126C21.1212 22.3249 21.4255 22.3116 21.7271 22.2725C22.3312 22.1938 22.9171 22.0127 23.4593 21.7373C23.7298 21.5997 23.9879 21.4394 24.2308 21.2579L24.2218 21.3035ZM23.9682 18.9705C24.1555 18.9726 24.3413 18.9366 24.5144 18.8654C24.6875 18.7938 24.844 18.6884 24.9746 18.5552C25.1052 18.422 25.2067 18.2638 25.2738 18.0902C25.3408 17.9167 25.3715 17.7316 25.3639 17.546C25.3639 16.992 25.0271 16.4927 24.511 16.2804C23.9945 16.0685 23.4003 16.1859 23.005 16.5777C22.6098 16.9694 22.4913 17.5584 22.7052 18.0703C22.9194 18.5819 23.4231 18.9157 23.982 18.9157L23.9682 18.9705Z" fill="white"/>
</g>
<defs>
<filter id="filter0_f_8294_96446" x="0.634727" y="10.54" width="39.9854" height="29.086" filterUnits="userSpaceOnUse" color-interpolation-filters="sRGB">
<feFlood flood-opacity="0" result="BackgroundImageFix"/>
<feBlend mode="normal" in="SourceGraphic" in2="BackgroundImageFix" result="shape"/>
<feGaussianBlur stdDeviation="2.73" result="effect1_foregroundBlur_8294_96446"/>
</filter>
<linearGradient id="paint0_linear_8294_96446" x1="22.6363" y1="34.7077" x2="16.7117" y2="13.8258" gradientUnits="userSpaceOnUse">
<stop stop-color="#FF4500"/>
<stop offset="1" stop-color="#F04100"/>
</linearGradient>
<linearGradient id="paint1_linear_8294_96446" x1="23.1339" y1="32.6405" x2="8.41387" y2="0.213867" gradientUnits="userSpaceOnUse">
<stop stop-color="#FF4500"/>
<stop offset="1" stop-color="#F04100"/>
</linearGradient>
<clipPath id="clip0_8294_96446">
<rect width="19.2" height="19.2" fill="white" transform="translate(11.1865 6.18652)"/>
</clipPath>
</defs>
</svg>
