<?xml version="1.0" standalone="no"?>
<!DOCTYPE svg PUBLIC "-//W3C//DTD SVG 20010904//EN"
 "http://www.w3.org/TR/2001/REC-SVG-20010904/DTD/svg10.dtd">
<svg version="1.0" xmlns="http://www.w3.org/2000/svg"
 width="700.000000pt" height="700.000000pt" viewBox="0 0 700.000000 700.000000"
 preserveAspectRatio="xMidYMid meet">
<metadata>
Created by potrace 1.14, written by Peter Selinger 2001-2017
</metadata>
<g transform="translate(0.000000,700.000000) scale(0.100000,-0.100000)"
fill="#000000" stroke="none">
<path d="M3080 6595 l0 -405 -67 0 c-257 0 -743 -9 -768 -14 -16 -4 -55 -11
-85 -17 -99 -19 -183 -49 -305 -110 -296 -147 -515 -364 -638 -631 -62 -133
-113 -312 -133 -458 -6 -48 -6 -226 0 -275 12 -94 22 -141 52 -241 78 -260
191 -443 431 -700 150 -161 218 -237 218 -244 0 -4 -39 -50 -86 -101 -48 -52
-99 -107 -114 -124 -16 -16 -54 -58 -87 -93 -210 -225 -361 -521 -403 -792 -3
-25 -9 -58 -12 -75 -10 -66 -4 -277 12 -352 52 -255 154 -475 301 -650 71 -83
91 -103 174 -173 36 -30 67 -58 68 -62 2 -5 9 -8 17 -8 7 0 18 -6 24 -14 21
-25 202 -123 284 -155 76 -29 199 -62 282 -76 22 -4 211 -9 420 -12 209 -2
381 -5 382 -7 2 -1 3 -183 3 -404 l1 -402 434 0 435 0 0 419 0 418 123 23
c520 97 1000 352 1379 734 230 232 423 510 547 786 18 41 41 93 51 115 40 91
118 346 135 445 3 19 11 55 16 80 6 25 13 68 16 95 2 28 6 56 9 63 8 25 18
207 18 322 0 239 -26 451 -84 673 -150 578 -475 1072 -956 1455 -90 71 -300
202 -425 265 -202 102 -357 161 -559 212 -77 19 -250 55 -266 55 -2 0 -4 189
-4 420 l0 420 -420 0 -420 0 0 -405z m-66 -1226 c15 -15 -70 -272 -144 -434
-150 -329 -286 -559 -478 -804 -12 -14 -16 -13 -43 18 -17 19 -56 62 -87 96
-130 140 -228 249 -245 274 -105 152 -133 345 -72 491 35 84 107 192 153 230
34 28 72 49 175 95 77 34 150 40 445 40 160 0 293 -3 296 -6z m1086 -74 c187
-68 399 -190 563 -323 141 -116 308 -307 414 -477 116 -184 225 -487 249 -690
3 -22 7 -51 10 -65 9 -46 12 -304 4 -383 -14 -131 -19 -162 -51 -288 -121
-481 -425 -897 -840 -1149 -184 -112 -411 -200 -606 -234 -36 -6 -32 -14 -63
119 -33 146 -132 454 -198 620 -34 86 -113 256 -142 305 -170 287 -258 421
-399 603 -42 54 -88 115 -103 136 l-26 37 37 40 c48 51 193 238 263 339 176
254 322 551 411 835 19 63 56 180 81 260 39 125 80 275 100 372 l6 26 107 -28
c60 -16 142 -40 183 -55z m-1698 -2475 c236 -294 415 -632 497 -942 10 -40 30
-107 44 -150 l24 -76 -283 -1 c-304 0 -330 3 -463 56 -131 52 -221 134 -285
260 -79 158 -63 365 41 523 36 54 362 392 374 387 4 -1 27 -27 51 -57z"/>
</g>
</svg>
