<svg xmlns="http://www.w3.org/2000/svg" width="79" height="32" fill="none"><g fill="#000" clip-path="url(#a)"><path d="M11.124 27.758H7.858v-3.2H5.467a5.473 5.473 0 0 1-3.22-1.048 5.504 5.504 0 0 1-1.994-2.745c-.598-1.835-.119-3.9 1.251-5.39L2.88 13.88l-1.376-1.496c-1.37-1.49-1.85-3.555-1.25-5.39a5.503 5.503 0 0 1 1.993-2.745A5.472 5.472 0 0 1 5.467 3.2h2.39V0h3.267v3.308a10.633 10.633 0 0 1 6.528 3.578 10.701 10.701 0 0 1 2.599 6.993c0 2.569-.923 5.051-2.6 6.993a10.632 10.632 0 0 1-6.527 3.578v3.308ZM5.08 16.321l-1.174 1.277c-.56.608-.774 1.451-.547 2.148a2.228 2.228 0 0 0 2.109 1.534h2.094c-.087-.353-.192-.71-.316-1.073A12.868 12.868 0 0 0 5.08 16.32Zm2.226-2.442a16.261 16.261 0 0 1 3.03 5.265c.228.662.41 1.339.546 2.026a7.37 7.37 0 0 0 4.375-2.53 7.417 7.417 0 0 0 0-9.522 7.37 7.37 0 0 0-4.375-2.53 15.449 15.449 0 0 1-.546 2.026 16.264 16.264 0 0 1-3.03 5.265Zm-1.838-7.4a2.215 2.215 0 0 0-2.11 1.534c-.226.696-.011 1.539.548 2.147l1.174 1.277A12.875 12.875 0 0 0 7.245 7.55c.124-.362.23-.72.316-1.073H5.467ZM23.458 3.57a2.314 2.314 0 0 0-1.702.71 2.364 2.364 0 0 0-.708 1.738 2.43 2.43 0 0 0 .708 1.708 2.413 2.413 0 0 0 1.702.71 2.35 2.35 0 0 0 1.733-.71 2.33 2.33 0 0 0 .707-1.708 2.433 2.433 0 0 0-.708-1.739 2.417 2.417 0 0 0-1.732-.71ZM25.115 10.475h-3.284v14.088h3.284V10.475ZM38.103 10.475v1.904a4.541 4.541 0 0 0-1.883-1.662 5.483 5.483 0 0 0-2.455-.605 7.107 7.107 0 0 0-2.923.59 6.838 6.838 0 0 0-2.275 1.617 7.492 7.492 0 0 0-1.476 2.373 7.882 7.882 0 0 0 0 5.669 7.523 7.523 0 0 0 1.476 2.358c.64.69 1.414 1.24 2.275 1.617a7.105 7.105 0 0 0 2.923.59 5.483 5.483 0 0 0 2.455-.605 4.534 4.534 0 0 0 1.883-1.663v2.6c0 1.33-.372 2.293-1.115 2.887-.743.595-1.778.892-3.103.892-1.185 0-2.09-.287-2.712-.861a3.123 3.123 0 0 1-1.054-2.01h-3.314c.04.746.219 1.48.527 2.16a5.728 5.728 0 0 0 1.34 1.86 6.61 6.61 0 0 0 2.17 1.315c.863.333 1.888.5 3.073.499a11.626 11.626 0 0 0 3.163-.393 6.203 6.203 0 0 0 2.35-1.21 5.385 5.385 0 0 0 1.491-2.085c.352-.847.527-1.864.528-3.054l-.06-14.783h-3.284Zm-.302 8.767a4.367 4.367 0 0 1-.843 1.42 4.072 4.072 0 0 1-1.31.968 3.935 3.935 0 0 1-1.703.363 3.836 3.836 0 0 1-1.687-.363 4.083 4.083 0 0 1-2.124-2.388 5.334 5.334 0 0 1 0-3.447 4.097 4.097 0 0 1 2.124-2.388 3.836 3.836 0 0 1 1.687-.363 3.935 3.935 0 0 1 1.702.363c.498.231.943.56 1.311.968.369.415.655.897.843 1.42a5.077 5.077 0 0 1 0 3.447ZM51.7 21.63c-.422.363-1.105.545-2.049.544a4.495 4.495 0 0 1-1.717-.287c-.432-.17-.82-.44-1.13-.786a3.21 3.21 0 0 1-.648-1.163 6.348 6.348 0 0 1-.27-1.421h10.032a8.84 8.84 0 0 0 .135-1.195c.01-.332.015-.62.015-.861a6.178 6.178 0 0 0-1.883-4.52 6.432 6.432 0 0 0-2.078-1.345 6.702 6.702 0 0 0-2.546-.484 7.383 7.383 0 0 0-2.953.56 5.998 5.998 0 0 0-2.169 1.556 6.966 6.966 0 0 0-1.34 2.358 8.968 8.968 0 0 0-.467 2.933c-.007.984.14 1.964.436 2.902.27.869.716 1.672 1.311 2.358a6.111 6.111 0 0 0 2.184 1.572c.874.383 1.903.574 3.088.575a7.386 7.386 0 0 0 2.44-.378 6.57 6.57 0 0 0 1.899-1.013c.524-.402.968-.9 1.31-1.466a4.944 4.944 0 0 0 .648-1.738h-3.314c-.2.503-.521.95-.934 1.3Zm-4.79-8.162c.682-.585 1.536-.877 2.56-.877 1.005 0 1.823.307 2.456.922s.949 1.467.949 2.555h-6.99c0-1.15.342-2.016 1.025-2.6ZM67.055 17.942a5.08 5.08 0 0 0-1.236-.756 30.503 30.503 0 0 0-1.415-.574 96.252 96.252 0 0 0-1.688-.62 13.384 13.384 0 0 1-1.205-.484 2.084 2.084 0 0 1-.723-.513 1.112 1.112 0 0 1-.24-.741 1.299 1.299 0 0 1 .587-1.15 2.517 2.517 0 0 1 1.43-.392c.804 0 1.381.196 1.733.59.351.392.527.921.527 1.587h3.194a4.34 4.34 0 0 0-.422-1.905 4.708 4.708 0 0 0-1.145-1.512 5.391 5.391 0 0 0-1.702-.997 5.974 5.974 0 0 0-2.094-.363 7.77 7.77 0 0 0-2.033.257c-.601.156-1.168.423-1.672.786-.47.34-.861.778-1.145 1.285a3.536 3.536 0 0 0-.422 1.753 4.344 4.344 0 0 0 .241 1.542c.146.402.383.764.693 1.058.32.296.68.545 1.07.741.435.222.882.419 1.34.59.743.282 1.386.514 1.928.695.462.15.915.326 1.356.529.305.132.581.322.813.56.187.217.284.498.272.785 0 .605-.221 1.028-.663 1.27a3.353 3.353 0 0 1-1.627.363c-.783 0-1.43-.187-1.943-.56-.411-.298-.654-.78-.736-1.435h-3.201c.04.582.19 1.151.442 1.678.3.62.732 1.167 1.265 1.602a5.58 5.58 0 0 0 1.823.982 6.985 6.985 0 0 0 2.169.333c.73.003 1.46-.083 2.17-.257a5.472 5.472 0 0 0 1.792-.786 3.772 3.772 0 0 0 1.205-1.345 3.981 3.981 0 0 0 .437-1.905c.019-.552-.09-1.1-.316-1.603-.208-.419-.5-.79-.86-1.088ZM77.247 21.751h-.904a3.675 3.675 0 0 1-.859-.09 1.29 1.29 0 0 1-.648-.377 1.83 1.83 0 0 1-.406-.828 6.179 6.179 0 0 1-.136-1.446v-5.784h3.224v-2.751h-3.224V6.018H71.01v4.457h-2.38v2.75h2.38v6.561c0 1.19.161 2.117.483 2.782.32.665.717 1.158 1.19 1.481a3.44 3.44 0 0 0 1.49.59c.46.065.923.1 1.387.105.482 0 .944-.02 1.385-.06.442-.04.794-.081 1.055-.121V21.66a2.3 2.3 0 0 1-.753.091Z"/></g><defs><clipPath id="a"><path fill="#fff" d="M0 0h79v32H0z"/></clipPath></defs></svg>