<svg xmlns="http://www.w3.org/2000/svg" width="20" height="20" fill="none"><path stroke="#000" stroke-linecap="round" stroke-linejoin="round" stroke-width="1.5" d="M8.751 1.669c-.562.007-.9.04-1.173.18-.314.159-.569.414-.728.728-.14.273-.172.61-.18 1.173m9.581-2.081c.563.007.9.04 1.174.18.313.159.568.414.728.728.14.273.172.61.18 1.173m0 7.5c-.008.562-.04.9-.18 1.173-.16.314-.415.569-.728.729-.273.139-.611.171-1.174.179m2.084-6.664v1.666m-6.667-6.667h1.667m-9 16.667h6.333c.933 0 1.4 0 1.757-.181.313-.16.568-.415.728-.729.182-.356.182-.823.182-1.756V9.332c0-.933 0-1.4-.182-1.756a1.667 1.667 0 0 0-.728-.729c-.357-.181-.824-.181-1.757-.181H4.335c-.934 0-1.4 0-1.757.181-.314.16-.569.415-.728.729-.182.356-.182.823-.182 1.756v6.333c0 .934 0 1.4.182 1.757.16.314.414.569.728.729.357.181.823.181 1.757.181Z"/></svg>