<svg xmlns="http://www.w3.org/2000/svg" width="48" height="48" fill="none"><path stroke="#B1B4B2" stroke-linecap="round" stroke-linejoin="round" stroke-width="2.5" d="M40 21v-7.4c0-3.36 0-5.04-.654-6.324a6 6 0 0 0-2.622-2.622C35.44 4 33.76 4 30.4 4H17.6c-3.36 0-5.04 0-6.324.654a6 6 0 0 0-2.622 2.622C8 8.56 8 10.24 8 13.6v20.8c0 3.36 0 5.04.654 6.324a6 6 0 0 0 2.622 2.622C12.56 44 14.24 44 17.6 44H23"/><path stroke="#000" stroke-linecap="round" stroke-linejoin="round" stroke-width="2" d="M28 22H16m4 8h-4m16-16H16m28 30-3-3m2-5a7 7 0 1 1-14 0 7 7 0 0 1 14 0Z"/></svg>