<svg width="19" height="19" viewBox="0 0 19 19" fill="none" xmlns="http://www.w3.org/2000/svg"><path d="M13.6665 1.99993C13.8854 1.78106 14.1452 1.60744 14.4312 1.48899C14.7171 1.37054 15.0236 1.30957 15.3332 1.30957C15.6427 1.30957 15.9492 1.37054 16.2352 1.48899C16.5211 1.60744 16.781 1.78106 16.9998 1.99993C17.2187 2.2188 17.3923 2.47863 17.5108 2.7646C17.6292 3.05057 17.6902 3.35706 17.6902 3.66659C17.6902 3.97612 17.6292 4.28262 17.5108 4.56859C17.3923 4.85455 17.2187 5.11439 16.9998 5.33326L5.74984 16.5833L1.1665 17.8333L2.4165 13.2499L13.6665 1.99993Z" stroke="#828584" stroke-width="1.66667" stroke-linecap="round" stroke-linejoin="round"></path></svg>