<svg width="20" height="18" viewBox="0 0 20 18" fill="none" xmlns="http://www.w3.org/2000/svg">
<path d="M13.3333 16.5V14.8333C13.3333 13.9493 12.9821 13.1014 12.3569 12.4763C11.7318 11.8512 10.884 11.5 9.99992 11.5H4.16658C3.28253 11.5 2.43468 11.8512 1.80956 12.4763C1.18444 13.1014 0.833252 13.9493 0.833252 14.8333V16.5M16.6666 5.66667V10.6667M19.1666 8.16667H14.1666M10.4166 4.83333C10.4166 6.67428 8.9242 8.16667 7.08325 8.16667C5.2423 8.16667 3.74992 6.67428 3.74992 4.83333C3.74992 2.99238 5.2423 1.5 7.08325 1.5C8.9242 1.5 10.4166 2.99238 10.4166 4.83333Z" stroke="#656766" stroke-width="1.67" stroke-linecap="round" stroke-linejoin="round"/>
</svg>
